<?xml version="1.0" standalone="no"?>
<!DOCTYPE svg PUBLIC "-//W3C//DTD SVG 20010904//EN"
 "http://www.w3.org/TR/2001/REC-SVG-20010904/DTD/svg10.dtd">
<svg version="1.0" xmlns="http://www.w3.org/2000/svg"
 width="500.000000pt" height="500.000000pt" viewBox="0 0 500.000000 500.000000"
 preserveAspectRatio="xMidYMid meet">
<metadata>
Created by potrace 1.14, written by Peter Selinger 2001-2017
</metadata>
<g transform="translate(0.000000,500.000000) scale(0.100000,-0.100000)"
fill="#000000" stroke="none">
<path d="M2315 4844 c-16 -2 -82 -11 -145 -20 -113 -15 -351 -72 -413 -99 -18
-7 -68 -28 -112 -46 -255 -101 -592 -326 -661 -441 -4 -7 10 3 33 22 106 92
250 197 258 188 3 -3 -48 -45 -112 -94 -65 -49 -132 -104 -150 -121 -17 -18
-35 -33 -40 -34 -4 0 -34 -30 -65 -67 -31 -37 -69 -80 -83 -97 -36 -41 -128
-163 -151 -200 -10 -16 -21 -32 -24 -35 -3 -3 -14 -22 -25 -42 -11 -21 -23
-38 -27 -38 -5 0 -8 -9 -8 -20 0 -11 -7 -23 -15 -26 -8 -4 -15 -15 -15 -26 0
-34 34 -16 55 30 11 23 25 42 32 42 7 0 13 9 13 19 0 10 7 21 15 25 8 3 15 15
15 27 0 15 4 19 16 15 8 -3 13 -2 10 3 -9 14 5 71 18 71 16 0 66 66 66 86 0
14 3 15 12 6 18 -18 37 -15 32 6 -3 9 3 33 13 52 15 28 24 35 48 35 23 0 31 5
33 22 4 26 109 133 131 133 9 0 24 14 33 30 13 22 25 30 45 30 20 0 24 3 14 9
-8 5 -20 7 -28 4 -7 -3 -13 0 -13 5 0 17 37 24 60 12 13 -7 20 -7 20 0 0 5 -4
10 -10 10 -5 0 -10 4 -10 9 0 5 24 12 53 17 48 6 50 8 25 16 -34 12 -37 32 -4
26 16 -3 23 0 22 10 0 9 9 18 21 21 12 3 33 16 46 27 34 30 67 40 78 23 4 -7
11 -10 16 -6 4 5 1 12 -7 17 -17 10 -7 24 18 25 9 1 29 2 45 3 15 1 27 8 27
16 0 9 -9 12 -27 9 -24 -3 -25 -2 -8 6 31 15 58 13 52 -3 -3 -8 -1 -16 4 -18
15 -5 -1 -38 -17 -38 -8 0 -33 -9 -54 -20 -22 -11 -50 -19 -62 -17 -13 2 -17
2 -10 0 28 -10 -2 -49 -46 -60 -15 -3 -41 -20 -57 -38 -17 -17 -45 -37 -63
-44 -17 -7 -30 -16 -28 -20 3 -4 2 -12 -2 -18 -8 -12 -74 -48 -84 -45 -9 2
-158 -150 -159 -163 0 -5 -18 -25 -40 -44 -38 -33 -39 -33 -40 -10 -1 13 -5 4
-10 -20 -5 -24 -16 -52 -26 -63 -16 -17 -18 -18 -29 -3 -11 14 -12 14 -18 -1
-3 -8 -3 -26 0 -38 4 -16 0 -25 -10 -29 -9 -4 -16 -15 -16 -26 0 -11 -4 -21
-8 -23 -17 -7 -93 -141 -88 -154 8 -20 -21 -17 -34 4 -9 14 -10 13 -4 -7 3
-12 20 -36 38 -51 25 -24 37 -28 66 -24 27 5 32 3 23 -6 -6 -7 -9 -18 -6 -25
6 -16 -8 -20 -122 -36 -49 -7 -85 -14 -80 -16 12 -4 7 -83 -5 -83 -4 0 -15
-25 -25 -56 -9 -30 -24 -58 -31 -61 -8 -3 -14 -20 -14 -40 0 -19 -5 -44 -11
-56 -9 -16 -9 -22 0 -25 9 -3 7 -10 -5 -23 -13 -15 -14 -22 -5 -33 7 -8 11
-19 8 -23 -3 -4 -15 -64 -27 -133 -11 -69 -25 -129 -31 -134 -5 -6 -9 -38 -9
-73 0 -35 -4 -63 -10 -63 -5 0 -10 -21 -10 -46 0 -38 -3 -45 -16 -40 -9 3 -18
6 -20 6 -2 0 -4 33 -5 73 0 39 -4 95 -8 122 l-7 50 -8 -80 c-11 -120 -17 -115
-10 10 3 60 10 113 16 116 6 4 7 16 3 28 -3 11 3 67 15 123 26 129 48 210 49
181 1 -12 -6 -48 -14 -79 -10 -41 -12 -61 -4 -73 9 -14 10 -14 5 2 -8 25 4 44
15 26 7 -11 9 -10 9 4 0 9 4 17 8 17 5 0 9 15 10 33 3 83 7 107 20 112 8 3 12
16 11 33 -4 34 27 102 46 102 11 0 15 12 15 40 0 31 4 40 18 40 16 1 16 1 -1
11 -14 8 -22 8 -30 0 -27 -27 -24 -5 10 67 19 42 38 88 41 102 12 56 -27 -4
-81 -123 -101 -225 -162 -458 -188 -712 -22 -219 3 -543 57 -740 9 -33 20 -77
25 -97 21 -90 116 -313 187 -442 136 -246 335 -485 546 -654 66 -53 134 -109
149 -124 16 -16 35 -28 43 -28 7 0 19 -9 26 -20 7 -11 18 -20 24 -20 7 0 14
-7 18 -15 3 -8 10 -15 16 -15 6 0 26 -11 44 -25 18 -14 38 -25 45 -25 7 0 9
-4 6 -10 -3 -5 1 -10 10 -10 8 0 32 -11 53 -24 20 -12 47 -26 60 -30 12 -4 22
-12 22 -17 0 -5 8 -9 18 -9 10 0 22 -4 28 -9 30 -27 340 -132 434 -147 19 -3
38 -8 42 -10 12 -8 222 -33 328 -39 116 -7 335 7 475 31 606 103 1151 460
1503 983 121 180 238 446 302 686 86 320 91 691 16 1030 -31 138 -118 387
-157 445 -5 8 -22 41 -38 73 -16 32 -36 66 -43 75 -8 9 -27 40 -43 67 -74 132
-355 460 -506 591 -316 275 -725 464 -1144 530 -95 14 -446 27 -510 18z"/>
<path d="M869 4130 c-29 -31 -32 -45 -3 -18 15 15 26 29 23 31 -2 2 -11 -4
-20 -13z"/>
<path d="M472 3315 c0 -16 2 -22 5 -12 2 9 2 23 0 30 -3 6 -5 -1 -5 -18z"/>
<path d="M350 3014 c0 -3 7 -12 15 -20 16 -17 18 -14 9 10 -6 15 -24 23 -24
10z"/>
<path d="M342 2940 c0 -14 2 -19 5 -12 2 6 2 18 0 25 -3 6 -5 1 -5 -13z"/>
</g>
</svg>
